<svg viewBox="0 0 166 37" xmlns="http://www.w3.org/2000/svg"><g fill="none" fill-rule="evenodd"><g fill-rule="nonzero"><path d="M12.5 0h3c.8 0 1.5.7 1.5 1.5v2c0 .8-.7 1.5-1.5 1.5h-3c-.8 0-1.5-.7-1.5-1.5v-2c0-.8.7-1.5 1.5-1.5z" fill="#000"/><path d="M16.5 12.7V7.5c0-.6.4-1 1-1s1-.4 1-1v-2c0-.6-.4-1-1-1h-7c-.6 0-1 .4-1 1v2c0 .6.4 1 1 1s1 .4 1 1v5.3c0 .3-.1.6-.3.7C9.2 15.2 1 20.1 1 26c0 7.2 5.8 10 13 10s13-2.8 13-10c0-5.5-8-11.1-10-12.5-.3-.2-.5-.5-.5-.8z" stroke="#000" fill="#FFF"/><path d="M5.1 20.7C3.9 22.1 3 23.8 3 25.5 3 31.6 7.9 34 14 34s11-2.4 11-8.5c0-1.6-.8-3.2-1.9-4.7" fill="#000"/><path d="M23.1 13.1l-1.7 2.5c-.2.3-.3.7-.2 1l2.4 8.9c.2.6.8 1 1.5.9l4.4-1.2c.6-.2 1-.8.9-1.5L28 14.8c-.1-.3-.3-.6-.6-.8l-2.7-1.3c-.6-.3-1.3-.1-1.6.4z" stroke="#000" fill="#FFF"/><path d="M24 14.5c-.2 0-.3-.1-.4-.2-1.7-2.6-5.1-4.4-5.7-4.8H10c-.3 0-.5-.2-.5-.5s.2-.5.5-.5h8.1l.1.1c.2.1 4.1 2.1 6.2 5.2.2.2.1.5-.1.7H24z" fill="#000"/></g><text font-family="Quicksand-Bold, Quicksand" font-size="28" font-weight="bold" fill="#3A3A3A" transform="translate(1)"><tspan x="38" y="29">Your logo</tspan></text></g></svg>