<svg xmlns="http://www.w3.org/2000/svg" viewBox="0 0 449.13 449.129"><path d="M66.748 110.213c.881-.43 1.737-.895 2.566-1.359a14.34 14.34 0 0 0 1.379 1.595l48.531 48.542c3.037-3.562 7.508-5.806 12.354-5.806 1.569 0 3.131.225 4.635.673l6.051 1.8 3.766-12.67-53.939-53.943a15.197 15.197 0 0 0-2.769-2.165l.127-.558c.128-.513.294-.898.45-1.341.124-.331.255-.678.378-1.042.157-.353.313-.728.47-1.119.268-.651.553-1.357.919-2.074l1.013-2.057 1.154-2.038c.487-.936 1.037-1.749 1.664-2.679.336-.492.673-1.004 1.016-1.523.303-.405.621-.818.934-1.246.786-1.037 1.519-2.021 2.315-2.872l.556-.613c1.053-1.149 2.106-2.337 3.332-3.349.39-.348.684-.618.994-.892.414-.386.834-.78 1.282-1.133l2.364-1.718a.885.885 0 0 0 .187-.148c.946-.755 2.081-1.395 3.294-2.071.486-.265.957-.528 1.434-.812 1.015-.651 2.062-1.072 3.176-1.518.562-.236 1.111-.46 1.673-.701.323-.128.654-.277.979-.421.353-.145.7-.32 1.053-.408l2.6-.73a49.183 49.183 0 0 0 1.721-.476c.845-.247 1.663-.481 2.213-.555l6.96-1.018a4.643 4.643 0 0 0 2.601-1.3 4.595 4.595 0 0 0 1.331-2.93 4.621 4.621 0 0 0-3.304-4.752l-6.859-1.951c-1.193-.358-2.46-.544-3.681-.723-.544-.084-1.1-.164-1.688-.262l-3.003-.465c-.942-.153-1.825-.175-2.611-.191-.309-.011-.621-.017-.946-.033-.786-.011-1.356-.042-1.944-.069-1.749-.073-3.727-.15-5.829.124l-1.331.107c-2.012.167-4.316.353-6.63.908l-3.71.75a50.812 50.812 0 0 0-3.053.875l-1.171.358c-2.683.744-5.22 1.809-7.677 2.845l-.337.141c-2.107.873-4.02 1.893-5.869 2.878l-1.534.817c-.107.053-.189.114-.296.17-.593.369-1.2.733-1.789 1.092-1.601.969-3.268 1.973-4.808 3.117l-2.566 1.831c-.054.046-.306.229-.369.281l-2.539 2.027a40.507 40.507 0 0 0-1.92 1.593c-4.573.761-8.967 2.883-12.49 6.416l-5.437 5.428c-2.503 2.506-4.851 6.02-6.785 9.957C28.813 79.17 17.248 91.756 0 108.999l38.569 38.55c13.223-13.229 29.827-28.813 28.179-37.336zM369.185 107.822l24.298 4.7 24.731-31.226c4.516-5.666 12.027-8.26 19.037-6.602V61.247h-36.526v29.22h-39.338l7.798 17.355z"/><path d="M148.68 115.712l7.498-25.25h-32.74z"/><path d="M437.251 247.502v-93.598c-.657.9-1.308 1.809-2.008 2.689-10.165 12.837-23.654 22.076-38.773 26.996h4.269v63.913h-97.861l45.855-62.523a39.916 39.916 0 0 0 2.308-3.289c25.619 6.421 53.806-2.131 71.241-24.134 12.721-16.061 17.668-36.797 13.56-56.904a5.976 5.976 0 0 0-4.46-4.626 6.02 6.02 0 0 0-6.087 2.101l-29.557 37.316-38.427-7.439-16.044-35.71 29.57-37.319a5.974 5.974 0 0 0 .657-6.394 5.984 5.984 0 0 0-5.514-3.301c-20.521.605-39.579 10.16-52.304 26.22-17.415 21.992-19.298 51.371-7.218 74.832a46.667 46.667 0 0 0-2.676 3.07l-59.339 70.592 14.361 14.363a30.115 30.115 0 0 1 7.714 13.144h-6.402a23.974 23.974 0 0 0-5.615-8.836l-81.683-81.698-2.123 7.122 5.535 1.647a16.128 16.128 0 0 1 9.666 7.833 16.17 16.17 0 0 1 1.289 12.377 16.317 16.317 0 0 1-3.324 6.024 28.386 28.386 0 0 1-1.023 11.401l-7.335 24.704 19.426 19.414h-33.464l14.424-48.561a21.11 21.11 0 0 0-.026-12.197 8.65 8.65 0 0 0 4.369-5.239c1.352-4.578-1.256-9.398-5.839-10.753l-12.821-3.817 34.85-117.3 1.097.326 9.028-17.478 3.541-27.259L195.042.746l-11.71 24.84-1.881 19.597 1.114.332-34.851 117.307-13.344-3.963c-4.567-1.36-9.396 1.25-10.753 5.828a8.65 8.65 0 0 0 .584 6.388 21.208 21.208 0 0 0-6.978 10.444L97.65 247.502H79.338v-63.907h24.253l4.335-14.613c1.092-3.661 1.839-4.668 4.017-7.721L72.79 121.146c-5.362 7.384-10.671 15.045-18.929 23.242l-11.04 11.029v92.085H30.942v127.837c0 40.335 32.715 73.042 73.056 73.042H376.09c40.346 0 73.04-32.702 73.04-73.042V247.502h-11.879zM150.54 202.099c1.44-4.865 6.551-7.627 11.416-6.188 4.844 1.443 7.62 6.553 6.175 11.414l-11.927 40.178h-19.151l13.487-45.404zm-29.586-8.787c1.441-4.857 6.553-7.626 11.414-6.187a9.172 9.172 0 0 1 6.182 11.409l-14.544 48.969h-19.147l16.095-54.191z"/><path d="M197.928 90.462l-14.131 47.568 45.573 45.565h24.428l40.63-48.329c-5.58-14.43-6.841-29.968-4.077-44.805h-92.423z"/></svg>